<svg xmlns="http://www.w3.org/2000/svg" viewBox="0 0 23 54"><defs><style>.cls-1{fill:#1d1d1f;}</style></defs><title>airpods_light_large</title><g id="Light"><g id="Airpods"><path class="cls-1" d="M13,32.49V51a.93.93,0,0,0,.93.92h1.86c.49,0,1.23-.4,1.23-.92V35.19a13.91,13.91,0,0,0,2,.18,5.16,5.16,0,0,0,3.81-1.81.82.82,0,0,0,.22-.62V29a1.05,1.05,0,0,0-.22-.62,5.8,5.8,0,0,0-4.11-1.85C15.71,26.46,13,30.46,13,32.49Z"/><path class="cls-1" d="M10,32.49V51A.93.93,0,0,1,9,52H7.25C6.76,52,6,51.55,6,51V35.19a13.91,13.91,0,0,1-2,.18A5.16,5.16,0,0,1,.22,33.56.82.82,0,0,1,0,32.94V29a1.05,1.05,0,0,1,.22-.62A5.8,5.8,0,0,1,4.33,26.5C7.29,26.46,10,30.46,10,32.49Z"/></g></g></svg>